#!OML:ASF E:\Style4\Style4.ASF
:FULLY-SPECIFIED
:DEGREES
1282
root 1.52333 17.3481 -2.19018 8.3214 -9.48694 9.3468
lowerback 21.5816 4.99658 6.60236
upperback 12.7856 7.47913 4.09719
thorax 2.30881 3.92386 -0.692456
lowerneck 1.05578 -14.7903 -1.066
upperneck 25.148 -21.0038 5.26238
head 8.41012 -9.33161 0.452265
rclavicle 1.27222e-014 2.8625e-014
rhumerus 58.8693 6.57998 -812.487
rradius 30.7952
rwrist 651.025
rhand -21.9242 20.0128
rfingers 7.12502
rthumb 4.48197 -9.91979
lclavicle 1.27222e-014 2.8625e-014
lhumerus 76.2155 26.544 30.0454
lradius 117.794
lwrist 48.6059
lhand 11.8518 28.1003
lfingers 7.12502
lthumb 36.8806 54.1956
rfemur -39.0678 -2.92179 4.03692
rtibia 45.152
rfoot -13.273 -11.9253
rtoes -16.8657
lfemur -32.2074 5.29208 -34.9513
ltibia 37.8828
lfoot -17.6271 12.5388
ltoes -8.13376
1283
root 1.56965 17.3335 -2.18163 8.28463 -10.5073 9.21109
lowerback 21.6207 4.89231 6.46274
upperback 12.6786 7.32329 4.32397
thorax 2.10843 3.81597 -0.366418
lowerneck 2.03424 -14.7664 -1.49249
upperneck 24.8012 -20.8552 5.1109
head 8.14372 -9.35917 0.569782
rclavicle 2.8625e-014 6.04305e-014
rhumerus 58.0789 6.0683 -813.365
rradius 29.9045
rwrist 651.343
rhand -22.9561 20.7711
rfingers 7.12502
rthumb 3.48549 -9.18014
lclavicle 2.8625e-014 6.04305e-014
lhumerus 75.5193 26.1427 29.9124
lradius 117.788
lwrist 48.5723
lhand 11.7195 28.2725
lfingers 7.12502
lthumb 36.7553 54.3998
rfemur -39.483 -2.38931 4.01574
rtibia 45.25
rfoot -13.1555 -11.541
rtoes -17.02
lfemur -32.5241 5.87026 -35.0277
ltibia 38.3684
lfoot -18.0729 12.8438
ltoes -7.80086
1284
root 1.61317 17.3184 -2.17121 8.25321 -11.5429 9.1833
lowerback 21.5874 4.74458 6.05337
upperback 12.6209 7.0576 4.53815
thorax 1.96023 3.64288 0.122419
lowerneck 3.12856 -14.5567 -2.73176
upperneck 24.5836 -20.6811 6.00859
head 8.11011 -9.35045 1.11329
rclavicle -1.01778e-013 -4.77083e-014
rhumerus 57.3792 5.9473 -813.812
rradius 29.2644
rwrist 650.617
rhand -24.5068 21.3795
rfingers 7.12502
rthumb 1.9879 -8.59097
lclavicle -1.01778e-013 -4.77083e-014
lhumerus 74.6596 25.9107 29.6932
lradius 117.772
lwrist 48.5281
lhand 11.8192 28.514
lfingers 7.12502
lthumb 36.8496 54.6172
rfemur -39.9191 -1.90598 3.89612
rtibia 45.3387
rfoot -12.9829 -11.1686
rtoes -17.5379
lfemur -32.8351 6.46331 -35.2108
ltibia 38.8261
lfoot -18.5719 13.0771
ltoes -7.40518
1285
root 1.65789 17.3026 -2.16148 8.23438 -12.5611 9.19145
lowerback 21.7102 4.65985 6.01138
upperback 12.714 6.92951 4.46543
thorax 2.00311 3.57642 0.0877697
lowerneck 3.61539 -14.5849 -3.57697
upperneck 24.4298 -20.9716 7.36471
head 8.24121 -9.47202 1.65609
rclavicle 9.54166e-015 9.54166e-015
rhumerus 57.356 5.04921 -814.695
rradius 28.3072
rwrist 650.722
rhand -25.6826 21.6428
rfingers 7.12502
rthumb 0.852297 -8.33524
lclavicle 9.54166e-015 9.54166e-015
lhumerus 74.6348 25.8623 29.6271
lradius 117.856
lwrist 48.5231
lhand 11.8182 28.5338
lfingers 7.12502
lthumb 36.8488 54.6372
rfemur -40.371 -1.48625 3.74681
rtibia 45.4033
rfoot -12.852 -10.6834
rtoes -17.7913
lfemur -33.1579 7.03483 -35.4427
ltibia 39.2637
lfoot -19.0607 13.327
ltoes -7.01881
1286
root 1.70339 17.2899 -2.15039 8.19022 -13.5497 9.11813
lowerback 21.5825 4.3772 5.37111
upperback 12.6476 6.44762 4.72781
thorax 1.8589 3.2824 0.802434
lowerneck 4.55038 -14.2523 -4.23845
upperneck 24.3288 -20.4264 6.99129
head 8.03703 -9.34096 1.7557
rclavicle 4.77083e-014 -4.77083e-014
rhumerus 56.7635 4.95187 -816.108
rradius 26.7658
rwrist 652.191
rhand -26.2478 21.6679
rfingers 7.12502
rthumb 0.30642 -8.31162
lclavicle 4.77083e-014 -4.77083e-014
lhumerus 73.1685 25.9629 29.0177
lradius 117.919
lwrist 48.6242
lhand 11.766 28.3661
lfingers 7.12502
lthumb 36.7993 54.4822
rfemur -40.7374 -1.05755 3.6781
rtibia 45.4455
rfoot -12.8224 -10.1705
rtoes -17.8097
lfemur -33.4272 7.6147 -35.5902
ltibia 39.6872
lfoot -19.4636 13.5823
ltoes -6.91382
